<svg width="557" height="176" viewBox="0 0 557 176" fill="none" xmlns="http://www.w3.org/2000/svg">
<g style="mix-blend-mode:multiply" opacity="0.1">
<path d="M13.5779 74.9736L1 77.9167V176H556V42.1667L544.208 47.0546H531.63L525.734 51.6315H517.873C515.777 52.3943 511.427 53.9199 510.798 53.9199C510.169 53.9199 506.081 54.8353 504.116 55.293L487.215 56.6661L477.388 58.4968L461.666 56.6661L453.411 55.293L441.62 58.4968H429.435L419.215 55.293C415.285 54.8353 407.266 53.9199 406.637 53.9199C406.008 53.9199 400.872 53.0046 398.383 52.5469H392.094L377.158 53.9199L364.187 55.293L358.291 58.4968L340.603 59.8699L331.563 61.243L321.343 63.5314L311.517 69.0237H307.193L295.402 67.6506L284.003 63.5314L274.176 61.243H268.28L258.061 59.8699L243.518 61.243H229.761L216.004 63.5314L202.246 66.2775L192.027 69.0237L181.021 70.3967L166.085 69.0237L154.293 70.3967L142.501 71.7698L131.496 70.3967L116.559 73.6005L103.982 71.7698L91.4037 73.6005H79.2188L66.2479 74.9736H52.8839L39.5198 76.3467L26.5489 73.6005L13.5779 74.9736Z" fill="url(#paint0_linear_5650_525523)"/>
</g>
<path d="M1 77.9167L13.5779 74.9736L26.5489 73.6005L39.5198 76.3467L52.8839 74.9736H66.2479L79.2188 73.6005H91.4037L103.982 71.7698L116.559 73.6005L131.496 70.3967L142.501 71.7698L154.293 70.3967L166.085 69.0237L181.021 70.3967L192.027 69.0237L202.246 66.2775L216.004 63.5314L229.761 61.243H243.518L258.061 59.8699L268.28 61.243H274.176L284.003 63.5314L295.402 67.6506L307.193 69.0237H311.517L321.343 63.5314L331.563 61.243L340.603 59.8699L358.291 58.4968L364.187 55.293L377.158 53.9199L392.094 52.5469H398.383C400.873 53.0046 406.009 53.9199 406.637 53.9199C407.266 53.9199 415.285 54.8353 419.215 55.293L429.435 58.4968H441.62L453.411 55.293L461.666 56.6661L477.388 58.4968L487.215 56.6661L504.116 55.293C506.081 54.8353 510.169 53.9199 510.798 53.9199C511.427 53.9199 515.777 52.3943 517.873 51.6315H525.734L531.63 47.0546H544.208L556 42.1667" stroke="#3E4784" stroke-width="2" stroke-linecap="round" stroke-linejoin="round"/>
<path d="M1 113.522L13.5779 111.648L26.5489 110.773L39.5198 112.522L52.8839 111.648H66.2479L79.2188 110.773H91.4037L103.982 109.607L116.559 110.773L131.496 108.732L142.501 109.607L154.293 108.732L166.085 107.858L181.021 108.732L192.027 107.858L202.246 106.108L216.004 104.359L229.761 102.901H243.518L258.061 102.027L268.28 102.901H274.176L284.003 104.359L295.402 106.983L307.193 107.858H311.517L321.343 104.359L331.563 102.901L340.603 102.027L358.291 101.152L364.187 99.1113L377.158 98.2367L392.094 97.3621H398.383C400.873 97.6536 406.008 98.2367 406.637 98.2367C407.266 98.2367 415.285 98.8198 419.215 99.1113L429.435 101.152H441.62L453.411 99.1113L461.666 99.9859L477.388 101.152L487.215 99.9859L504.116 99.1113C506.081 98.8198 510.169 98.2367 510.798 98.2367C511.427 98.2367 515.777 97.2649 517.873 96.779H525.734L531.63 93.8636H544.208L556 90.75" stroke="#717BBC" stroke-width="2" stroke-linecap="round" stroke-linejoin="round"/>
<path d="M1 158.583L13.5779 153.603L26.5489 151.279L39.5198 155.926L52.8839 153.603H66.2479L79.2188 151.279H91.4037L103.982 148.181L116.559 151.279L131.496 145.857L142.501 148.181L154.293 145.857L166.085 143.534L181.021 145.857L192.027 143.534L202.246 138.886L216.004 134.239L229.761 130.366H243.518L258.061 128.043L268.28 130.366H274.176L284.003 134.239L295.402 141.21L307.193 143.534H311.517L321.343 134.239L331.563 130.366L340.603 128.043L358.291 125.719L364.187 120.297L377.158 117.974L392.094 115.65H398.383C400.873 116.424 406.008 117.974 406.637 117.974C407.266 117.974 415.285 119.523 419.215 120.297L429.435 125.719H441.62L453.411 120.297L461.666 122.621L477.388 125.719L487.215 122.621L504.116 120.297C506.081 119.523 510.169 117.974 510.798 117.974C511.427 117.974 515.777 115.392 517.873 114.101H525.734L531.63 106.355H544.208L556 98.0833" stroke="#293056" stroke-width="2" stroke-linecap="round" stroke-linejoin="round"/>
<defs>
<linearGradient id="paint0_linear_5650_525523" x1="278.5" y1="42.1667" x2="278.5" y2="170.042" gradientUnits="userSpaceOnUse">
<stop stop-color="#7F56D9"/>
<stop offset="1" stop-color="#7F56D9" stop-opacity="0"/>
</linearGradient>
</defs>
</svg>
