<svg width="20" height="20" viewBox="0 0 20 20" fill="none" xmlns="http://www.w3.org/2000/svg">
<path d="M10 10.8333C10.4603 10.8333 10.8334 10.4602 10.8334 10C10.8334 9.53976 10.4603 9.16667 10 9.16667C9.53978 9.16667 9.16669 9.53976 9.16669 10C9.16669 10.4602 9.53978 10.8333 10 10.8333Z" stroke="#98A2B3" stroke-width="1.66667" stroke-linecap="round" stroke-linejoin="round"/>
<path d="M10 5C10.4603 5 10.8334 4.62691 10.8334 4.16667C10.8334 3.70643 10.4603 3.33334 10 3.33334C9.53978 3.33334 9.16669 3.70643 9.16669 4.16667C9.16669 4.62691 9.53978 5 10 5Z" stroke="#98A2B3" stroke-width="1.66667" stroke-linecap="round" stroke-linejoin="round"/>
<path d="M10 16.6667C10.4603 16.6667 10.8334 16.2936 10.8334 15.8333C10.8334 15.3731 10.4603 15 10 15C9.53978 15 9.16669 15.3731 9.16669 15.8333C9.16669 16.2936 9.53978 16.6667 10 16.6667Z" stroke="#98A2B3" stroke-width="1.66667" stroke-linecap="round" stroke-linejoin="round"/>
</svg>
