<svg width="21" height="20" viewBox="0 0 21 20" fill="none" xmlns="http://www.w3.org/2000/svg">
<path d="M10.6667 10.8333C11.1269 10.8333 11.5 10.4602 11.5 10C11.5 9.53976 11.1269 9.16667 10.6667 9.16667C10.2064 9.16667 9.83335 9.53976 9.83335 10C9.83335 10.4602 10.2064 10.8333 10.6667 10.8333Z" stroke="#98A2B3" stroke-width="1.66667" stroke-linecap="round" stroke-linejoin="round"/>
<path d="M10.6667 5C11.1269 5 11.5 4.62691 11.5 4.16667C11.5 3.70643 11.1269 3.33334 10.6667 3.33334C10.2064 3.33334 9.83335 3.70643 9.83335 4.16667C9.83335 4.62691 10.2064 5 10.6667 5Z" stroke="#98A2B3" stroke-width="1.66667" stroke-linecap="round" stroke-linejoin="round"/>
<path d="M10.6667 16.6667C11.1269 16.6667 11.5 16.2936 11.5 15.8333C11.5 15.3731 11.1269 15 10.6667 15C10.2064 15 9.83335 15.3731 9.83335 15.8333C9.83335 16.2936 10.2064 16.6667 10.6667 16.6667Z" stroke="#98A2B3" stroke-width="1.66667" stroke-linecap="round" stroke-linejoin="round"/>
</svg>
