<svg width="240" height="240" viewBox="0 0 240 240" fill="none" xmlns="http://www.w3.org/2000/svg">
<path d="M120 8C134.708 8 149.272 10.897 162.861 16.5255C176.449 22.154 188.796 30.4039 199.196 40.804C209.596 51.2042 217.846 63.551 223.475 77.1395C229.103 90.7279 232 105.292 232 120C232 134.708 229.103 149.272 223.474 162.861C217.846 176.449 209.596 188.796 199.196 199.196C188.796 209.596 176.449 217.846 162.861 223.475C149.272 229.103 134.708 232 120 232C105.292 232 90.7279 229.103 77.1394 223.474C63.551 217.846 51.2042 209.596 40.804 199.196C30.4038 188.796 22.154 176.449 16.5255 162.86C10.897 149.272 7.99999 134.708 8 120C8.00001 105.292 10.897 90.7279 16.5255 77.1394C22.1541 63.5509 30.4039 51.2042 40.8041 40.804C51.2043 30.4038 63.551 22.154 77.1395 16.5255C90.728 10.8969 105.292 7.99999 120 8L120 8Z" stroke="#F2F4F7" stroke-width="16" stroke-linecap="round" stroke-linejoin="round"/>
<path d="M120 8C145.635 8 170.494 16.7939 190.427 32.9134C210.359 49.0329 224.159 71.5024 229.522 96.5701C234.885 121.638 231.486 147.787 219.893 170.65C208.3 193.514 189.214 211.709 165.823 222.197C142.432 232.685 116.15 234.832 91.3674 228.278C66.5843 221.725 44.7994 206.868 29.65 186.188C14.5006 165.509 6.90372 140.258 8.12775 114.652C9.35178 89.0465 19.3226 64.6356 36.3755 45.4953" stroke="#293056" stroke-width="16" stroke-linecap="round" stroke-linejoin="round"/>
</svg>
