<svg width="200" height="200" viewBox="0 0 200 200" fill="none" xmlns="http://www.w3.org/2000/svg">
<path d="M100 8C112.082 8 124.045 10.3797 135.207 15.0031C146.369 19.6265 156.511 26.4032 165.054 34.9462C173.597 43.4892 180.373 53.6312 184.997 64.7931C189.62 75.9551 192 87.9184 192 100C192 112.082 189.62 124.045 184.997 135.207C180.373 146.369 173.597 156.511 165.054 165.054C156.511 173.597 146.369 180.373 135.207 184.997C124.045 189.62 112.082 192 100 192C87.9184 192 75.955 189.62 64.7931 184.997C53.6311 180.373 43.4891 173.597 34.9461 165.054C26.4032 156.511 19.6265 146.369 15.0031 135.207C10.3796 124.045 7.99999 112.082 8 100C8.00001 87.9183 10.3797 75.955 15.0031 64.7931C19.6265 53.6311 26.4032 43.4891 34.9462 34.9461C43.4892 26.4032 53.6312 19.6265 64.7932 15.0031C75.9551 10.3796 87.9184 7.99999 100 8L100 8Z" stroke="#F2F4F7" stroke-width="16" stroke-linecap="round" stroke-linejoin="round"/>
<path d="M100 8C118.791 8 137.132 13.7544 152.556 24.4892C167.979 35.224 179.746 50.4243 186.272 68.0459C192.799 85.6675 193.773 104.865 189.064 123.057C184.354 141.249 174.187 157.562 159.929 169.803C145.672 182.044 128.008 189.625 109.313 191.527C90.6178 193.43 71.7887 189.561 55.3578 180.443C38.9269 171.325 25.6823 157.393 17.4053 140.523C9.12823 123.653 6.21579 104.652 9.05963 86.077" stroke="#3E4784" stroke-width="16" stroke-linecap="round" stroke-linejoin="round"/>
</svg>
