<svg width="160" height="160" viewBox="0 0 160 160" fill="none" xmlns="http://www.w3.org/2000/svg">
<path d="M80 8C89.4552 8 98.8178 9.86234 107.553 13.4807C116.289 17.099 124.226 22.4025 130.912 29.0883C137.598 35.7741 142.901 43.7114 146.519 52.4468C150.138 61.1822 152 70.5448 152 80C152 89.4552 150.138 98.8178 146.519 107.553C142.901 116.289 137.597 124.226 130.912 130.912C124.226 137.598 116.289 142.901 107.553 146.519C98.8177 150.138 89.4552 152 80 152C70.5448 152 61.1822 150.138 52.4468 146.519C43.7113 142.901 35.7741 137.597 29.0883 130.912C22.4025 124.226 17.099 116.289 13.4807 107.553C9.86233 98.8177 8 89.4551 8 80C8 70.5448 9.86234 61.1822 13.4807 52.4468C17.099 43.7113 22.4025 35.7741 29.0883 29.0883C35.7742 22.4025 43.7114 17.099 52.4468 13.4807C61.1823 9.86232 70.5449 7.99999 80 8L80 8Z" stroke="#F2F4F7" stroke-width="16" stroke-linecap="round" stroke-linejoin="round"/>
<path d="M80 8C92.526 8 104.835 11.2678 115.712 17.4807C126.588 23.6936 135.656 32.6365 142.019 43.4261C148.382 54.2156 151.82 66.4785 151.993 79.0033C152.167 91.528 149.069 103.881 143.008 114.843C136.946 125.805 128.129 134.995 117.429 141.507C106.729 148.018 94.5145 151.626 81.9933 151.972C69.4721 152.319 57.0771 149.393 46.0326 143.484C34.9882 137.575 25.6765 128.886 19.0174 118.277" stroke="#717BBC" stroke-width="16" stroke-linecap="round" stroke-linejoin="round"/>
</svg>
